<svg width="216" height="64" viewBox="0 0 216 64" fill="none" xmlns="http://www.w3.org/2000/svg" role="img" aria-labelledby="title desc">
  <title id="title">Gridly</title>
  <desc id="desc">Gridly wordmark with a geometric finance grid mark and upward balance stroke.</desc>
  <defs>
    <linearGradient id="gridly-mark-bg" x1="8" y1="7" x2="58" y2="57" gradientUnits="userSpaceOnUse">
      <stop stop-color="#533AFD"/>
      <stop offset="0.58" stop-color="#2E2B8C"/>
      <stop offset="1" stop-color="#061B31"/>
    </linearGradient>
    <linearGradient id="gridly-mark-accent" x1="20" y1="47" x2="50" y2="25" gradientUnits="userSpaceOnUse">
      <stop stop-color="#B9B9F9"/>
      <stop offset="0.55" stop-color="#F96BEE"/>
      <stop offset="1" stop-color="#EA2261"/>
    </linearGradient>
    <filter id="gridly-mark-shadow" x="0" y="0" width="66" height="64" filterUnits="userSpaceOnUse" color-interpolation-filters="sRGB">
      <feFlood flood-opacity="0" result="BackgroundImageFix"/>
      <feColorMatrix in="SourceAlpha" type="matrix" values="0 0 0 0 0 0 0 0 0 0 0 0 0 0 0 0 0 0 127 0" result="hardAlpha"/>
      <feOffset dy="3"/>
      <feGaussianBlur stdDeviation="2.5"/>
      <feComposite in2="hardAlpha" operator="out"/>
      <feColorMatrix type="matrix" values="0 0 0 0 0.196 0 0 0 0 0.196 0 0 0 0 0.365 0 0 0 0.18 0"/>
      <feBlend mode="normal" in2="BackgroundImageFix" result="effect1_dropShadow"/>
      <feBlend mode="normal" in="SourceGraphic" in2="effect1_dropShadow" result="shape"/>
    </filter>
  </defs>

  <g filter="url(#gridly-mark-shadow)">
    <rect x="8" y="7" width="50" height="50" rx="8" fill="url(#gridly-mark-bg)"/>
    <rect x="8.75" y="7.75" width="48.5" height="48.5" rx="7.25" stroke="white" stroke-opacity="0.2" stroke-width="1.5"/>
  </g>

  <path
    d="M42.4 22.35C40.05 20.35 37.02 19.15 33.58 19.15C26.27 19.15 20.32 25.1 20.32 32.42C20.32 39.73 26.27 45.68 33.58 45.68C40.12 45.68 45.35 41.05 46.2 34.92H34.2"
    stroke="white"
    stroke-width="5.25"
    stroke-linecap="round"
    stroke-linejoin="round"
  />

  <path
    d="M20.1 44.25L28.36 36.49L35.27 39.91L47.86 27.18"
    stroke="url(#gridly-mark-accent)"
    stroke-width="4.1"
    stroke-linecap="round"
    stroke-linejoin="round"
  />

  <g fill="white" opacity="0.9">
    <rect x="19" y="18" width="5.8" height="5.8" rx="1.4"/>
    <rect x="27.7" y="18" width="5.8" height="5.8" rx="1.4" opacity="0.76"/>
    <rect x="19" y="26.7" width="5.8" height="5.8" rx="1.4" opacity="0.68"/>
  </g>

  <text
    x="73"
    y="41"
    fill="#061B31"
    font-family="Geist, 'SF Pro Display', -apple-system, BlinkMacSystemFont, 'Segoe UI', sans-serif"
    font-size="34"
    font-weight="300"
    letter-spacing="-0.8"
  >Gridly</text>
</svg>
