<svg width="96" height="96" viewBox="12 10 72 72" fill="none" xmlns="http://www.w3.org/2000/svg" role="img" aria-labelledby="title desc">
  <title id="title">Gridly logo</title>
  <desc id="desc">A geometric G mark made from finance grid cells and an upward balance stroke.</desc>
  <defs>
    <linearGradient id="gridly-bg" x1="18" y1="12" x2="78" y2="84" gradientUnits="userSpaceOnUse">
      <stop stop-color="#533AFD"/>
      <stop offset="0.58" stop-color="#2E2B8C"/>
      <stop offset="1" stop-color="#061B31"/>
    </linearGradient>
    <linearGradient id="gridly-accent" x1="29" y1="64" x2="69" y2="34" gradientUnits="userSpaceOnUse">
      <stop stop-color="#B9B9F9"/>
      <stop offset="0.55" stop-color="#F96BEE"/>
      <stop offset="1" stop-color="#EA2261"/>
    </linearGradient>
    <filter id="gridly-shadow" x="4" y="5" width="88" height="90" filterUnits="userSpaceOnUse" color-interpolation-filters="sRGB">
      <feFlood flood-opacity="0" result="BackgroundImageFix"/>
      <feColorMatrix in="SourceAlpha" type="matrix" values="0 0 0 0 0 0 0 0 0 0 0 0 0 0 0 0 0 0 127 0" result="hardAlpha"/>
      <feOffset dy="6"/>
      <feGaussianBlur stdDeviation="7"/>
      <feComposite in2="hardAlpha" operator="out"/>
      <feColorMatrix type="matrix" values="0 0 0 0 0.196 0 0 0 0 0.196 0 0 0 0 0.365 0 0 0 0.28 0"/>
      <feBlend mode="normal" in2="BackgroundImageFix" result="effect1_dropShadow_1_30"/>
      <feBlend mode="normal" in="SourceGraphic" in2="effect1_dropShadow_1_30" result="shape"/>
    </filter>
  </defs>

  <g filter="url(#gridly-shadow)">
    <rect x="12" y="10" width="72" height="72" rx="12" fill="url(#gridly-bg)"/>
    <rect x="12.75" y="10.75" width="70.5" height="70.5" rx="11.25" stroke="white" stroke-opacity="0.18" stroke-width="1.5"/>
  </g>

  <path
    d="M61 31.5C57.7 28.7 53.45 27 48.62 27C38.35 27 30 35.35 30 45.62C30 55.9 38.35 64.25 48.62 64.25C57.8 64.25 65.15 57.75 66.35 49.15H49.5"
    stroke="white"
    stroke-width="7"
    stroke-linecap="round"
    stroke-linejoin="round"
  />

  <path
    d="M29 62L40.6 51.1L50.3 55.9L68 38"
    stroke="url(#gridly-accent)"
    stroke-width="5.5"
    stroke-linecap="round"
    stroke-linejoin="round"
  />

  <g fill="white" opacity="0.9">
    <rect x="28" y="25" width="8" height="8" rx="2"/>
    <rect x="40" y="25" width="8" height="8" rx="2" opacity="0.78"/>
    <rect x="28" y="37" width="8" height="8" rx="2" opacity="0.7"/>
  </g>
</svg>
